<?xml version="1.0" standalone="no"?>
<!DOCTYPE svg PUBLIC "-//W3C//DTD SVG 20010904//EN"
 "http://www.w3.org/TR/2001/REC-SVG-20010904/DTD/svg10.dtd">
<svg version="1.0" xmlns="http://www.w3.org/2000/svg"
 width="2704.000000pt" height="944.000000pt" viewBox="0 0 2704.000000 944.000000"
 preserveAspectRatio="xMidYMid meet">

<g transform="translate(0.000000,944.000000) scale(0.100000,-0.100000)"
fill="#000000" stroke="none">
<path d="M2690 9248 c-6 -13 -332 -801 -724 -1752 l-715 -1729 30 -76 c140
-354 383 -621 714 -785 104 -51 275 -116 307 -116 10 0 168 390 520 1291 278
709 509 1289 514 1288 5 -2 404 -1018 887 -2258 483 -1241 882 -2259 886
-2264 4 -4 345 -6 758 -5 l750 3 -1326 3210 -1327 3210 -632 3 -632 2 -10 -22z"/>
<path d="M6630 7280 l0 -700 -235 0 -235 0 0 -485 0 -485 234 0 235 0 4 -842
c3 -740 6 -856 21 -946 47 -281 142 -488 294 -645 158 -162 358 -257 637 -303
190 -31 593 -22 776 17 l49 11 0 475 0 476 -40 -7 c-196 -31 -341 -27 -456 14
-71 25 -119 61 -161 124 -70 103 -67 71 -71 889 l-3 737 406 0 405 0 0 485 0
485 -405 0 -405 0 0 700 0 700 -525 0 -525 0 0 -700z"/>
<path d="M21203 5943 c2 -1895 4 -2045 20 -2141 88 -510 351 -803 816 -908
141 -31 353 -47 531 -39 134 6 331 28 365 42 13 4 15 73 15 480 l0 475 -22 -6
c-54 -15 -219 -26 -283 -20 -124 12 -191 38 -255 103 -66 66 -94 135 -110 272
-6 51 -10 805 -10 1932 l0 1847 -535 0 -536 0 4 -2037z"/>
<path d="M14790 6689 c-591 -60 -1128 -377 -1451 -858 -214 -317 -309 -644
-309 -1056 0 -525 164 -947 509 -1307 316 -331 703 -527 1168 -594 145 -21
467 -24 603 -5 370 50 691 185 975 411 88 71 267 240 263 249 -2 3 -154 156
-339 338 l-336 333 -54 -51 c-210 -197 -412 -291 -685 -319 -428 -45 -831 202
-974 597 -107 296 -67 646 101 894 195 289 531 441 888 401 257 -29 463 -126
667 -315 l60 -56 338 338 337 337 -108 105 c-340 330 -727 512 -1192 559 -119
12 -337 11 -461 -1z"/>
<path d="M18530 6680 c-778 -43 -1348 -383 -1659 -990 -161 -314 -244 -646
-243 -970 0 -398 104 -752 311 -1066 286 -433 715 -703 1225 -770 148 -20 482
-14 621 10 345 60 604 197 776 414 l63 79 28 -59 c75 -158 224 -302 370 -356
76 -28 225 -58 384 -77 135 -16 487 -21 559 -7 l40 7 3 461 2 461 -113 -5
c-125 -5 -170 4 -226 46 -40 30 -76 104 -90 187 -7 36 -17 485 -26 1100 -9
635 -19 1054 -25 1076 -15 53 -64 116 -107 138 -41 20 -268 91 -453 141 -513
139 -1025 202 -1440 180z m620 -1024 c206 -37 400 -111 437 -165 23 -34 23
-35 23 -390 0 -196 -5 -387 -10 -426 -35 -247 -124 -433 -274 -572 -118 -110
-258 -181 -431 -219 -97 -21 -303 -24 -390 -5 -166 36 -313 120 -436 248 -165
173 -242 373 -241 628 0 96 5 140 26 220 28 107 75 216 127 292 49 71 156 180
223 225 126 86 311 153 491 177 96 13 352 6 455 -13z"/>
<path d="M24785 6664 c-390 -39 -679 -136 -956 -323 -467 -313 -733 -770 -790
-1356 -14 -149 -6 -472 16 -610 72 -463 292 -842 645 -1114 272 -210 586 -336
967 -387 175 -23 525 -23 678 0 461 71 839 255 1173 572 l73 69 -252 240
c-139 132 -281 266 -316 298 l-63 59 -72 -60 c-229 -188 -465 -277 -768 -289
-562 -22 -953 236 -1015 669 l-7 48 1378 2 1379 3 9 170 c20 379 -35 705 -166
985 -209 446 -618 804 -1078 943 -192 58 -334 78 -580 82 -118 2 -233 1 -255
-1z m325 -884 c192 -24 365 -97 493 -210 90 -78 167 -223 183 -339 l7 -51
-838 0 -838 0 7 48 c3 26 24 85 47 131 139 283 552 468 939 421z"/>
<path d="M10375 6650 c-483 -49 -867 -201 -1168 -464 -281 -246 -498 -631
-591 -1046 -53 -238 -66 -413 -46 -625 37 -386 167 -717 399 -1015 244 -313
608 -540 996 -619 315 -65 725 -45 1007 49 229 77 436 222 555 390 15 22 30
39 33 39 3 0 22 -37 44 -81 45 -94 152 -214 248 -278 105 -70 306 -117 603
-141 134 -11 408 -7 468 7 l27 6 0 458 0 459 -128 -2 c-119 -2 -130 0 -177 24
-35 17 -58 39 -79 72 -57 93 -56 74 -72 1202 -8 641 -18 1060 -24 1092 -12 56
-54 122 -96 149 -85 56 -732 225 -1068 279 -280 45 -719 66 -931 45z m768
-1029 c106 -23 303 -89 343 -116 14 -9 34 -30 45 -48 19 -31 20 -45 16 -417
-5 -424 -10 -471 -75 -648 -81 -219 -257 -398 -475 -483 -139 -53 -251 -72
-407 -66 -195 7 -317 47 -465 152 -341 242 -460 727 -275 1122 133 284 375
457 727 519 119 20 439 12 566 -15z"/>
<path d="M485 3912 c-203 -493 -387 -935 -407 -984 l-37 -88 757 0 757 0 118
303 c64 166 141 364 171 440 l54 138 -68 34 c-37 19 -121 70 -186 114 -337
225 -577 494 -733 822 l-56 117 -370 -896z"/>
</g>
</svg>
